<svg width="26" height="26" viewBox="0 0 26 26" fill="none" xmlns="http://www.w3.org/2000/svg">
<path d="M17.872 16.8203C18.581 16.4395 19.3925 16.2227 20.2568 16.2227H20.2597C20.3476 16.2227 20.3886 16.1172 20.3242 16.0586C19.4254 15.252 18.3987 14.6005 17.2861 14.1309C17.2744 14.125 17.2626 14.1221 17.2509 14.1162C19.0703 12.7949 20.2539 10.6475 20.2539 8.22461C20.2539 4.21094 17.0078 0.958984 13.0029 0.958984C8.998 0.958984 5.75483 4.21094 5.75483 8.22461C5.75483 10.6475 6.93843 12.7949 8.76069 14.1162C8.74897 14.1221 8.73726 14.125 8.72554 14.1309C7.41597 14.6846 6.24116 15.4785 5.23042 16.4922C4.22551 17.4953 3.42548 18.6844 2.87495 19.9932C2.33329 21.2748 2.04096 22.6479 2.01362 24.0391C2.01284 24.0703 2.01833 24.1014 2.02975 24.1306C2.04118 24.1597 2.05832 24.1862 2.08016 24.2086C2.10201 24.231 2.12811 24.2488 2.15693 24.2609C2.18576 24.2731 2.21672 24.2793 2.248 24.2793H4.00288C4.12886 24.2793 4.23433 24.1768 4.23726 24.0508C4.29585 21.7891 5.20112 19.6709 6.80366 18.0654C8.45894 16.4043 10.6621 15.4902 13.0058 15.4902C14.6669 15.4902 16.2607 15.9502 17.6347 16.8115C17.67 16.8337 17.7105 16.8462 17.7522 16.8477C17.7938 16.8493 17.8352 16.8398 17.872 16.8203ZM13.0058 13.2637C11.664 13.2637 10.4013 12.7393 9.44917 11.7871C8.9807 11.3199 8.60931 10.7645 8.3564 10.1531C8.10348 9.54169 7.97404 8.88627 7.97554 8.22461C7.97554 6.87988 8.49995 5.61426 9.44917 4.66211C10.3984 3.70996 11.6611 3.18555 13.0058 3.18555C14.3505 3.18555 15.6103 3.70996 16.5624 4.66211C17.0309 5.12937 17.4023 5.6847 17.6552 6.29612C17.9081 6.90753 18.0376 7.56295 18.0361 8.22461C18.0361 9.56934 17.5117 10.835 16.5624 11.7871C15.6103 12.7393 14.3476 13.2637 13.0058 13.2637ZM23.7812 20.2363H21.3203V17.7754C21.3203 17.6465 21.2148 17.541 21.0859 17.541H19.4453C19.3164 17.541 19.2109 17.6465 19.2109 17.7754V20.2363H16.75C16.621 20.2363 16.5156 20.3418 16.5156 20.4707V22.1113C16.5156 22.2402 16.621 22.3457 16.75 22.3457H19.2109V24.8066C19.2109 24.9355 19.3164 25.041 19.4453 25.041H21.0859C21.2148 25.041 21.3203 24.9355 21.3203 24.8066V22.3457H23.7812C23.9101 22.3457 24.0156 22.2402 24.0156 22.1113V20.4707C24.0156 20.3418 23.9101 20.2363 23.7812 20.2363Z" fill="#1D2D44"/>
</svg>
