<svg width="40" height="40" viewBox="0 0 40 40" fill="none" xmlns="http://www.w3.org/2000/svg">
<path d="M29.1667 20C31.5978 20 33.9294 20.9658 35.6485 22.6849C37.3676 24.4039 38.3333 26.7355 38.3333 29.1667C38.3333 31.5978 37.3676 33.9294 35.6485 35.6485C33.9294 37.3676 31.5978 38.3333 29.1667 38.3333C26.7355 38.3333 24.4039 37.3676 22.6848 35.6485C20.9658 33.9294 20 31.5978 20 29.1667C20 26.7355 20.9658 24.4039 22.6848 22.6849C24.4039 20.9658 26.7355 20 29.1667 20ZM20.0367 23.3333C18.9214 25.0743 18.3301 27.0991 18.3333 29.1667C18.3333 31.9067 19.35 34.4083 21.0283 36.3167C19.6917 36.5517 18.2367 36.6667 16.6667 36.6667C11.85 36.6667 8.12 35.5733 5.515 33.3333C4.83274 32.7466 4.2852 32.0196 3.90982 31.2018C3.53445 30.384 3.34007 29.4948 3.34 28.595V27.0833C3.34 26.0888 3.73508 25.1349 4.43835 24.4317C5.14161 23.7284 6.09543 23.3333 7.09 23.3333H20.0367ZM25.155 24.9433L25.0383 25.04L24.9433 25.1567C24.8473 25.2958 24.7958 25.4609 24.7958 25.63C24.7958 25.7991 24.8473 25.9642 24.9433 26.1033L25.04 26.2183L27.99 29.1683L25.0433 32.1117L24.9483 32.2283C24.8523 32.3675 24.8008 32.5326 24.8008 32.7017C24.8008 32.8707 24.8523 33.0358 24.9483 33.175L25.045 33.2917L25.16 33.3867C25.2992 33.4827 25.4642 33.5341 25.6333 33.5341C25.8024 33.5341 25.9675 33.4827 26.1067 33.3867L26.2233 33.29L29.1667 30.345L32.1167 33.295L32.2317 33.3917C32.3708 33.4877 32.5359 33.5391 32.705 33.5391C32.8741 33.5391 33.0392 33.4877 33.1783 33.3917L33.295 33.295L33.3917 33.1783C33.4877 33.0392 33.5391 32.8741 33.5391 32.705C33.5391 32.5359 33.4877 32.3708 33.3917 32.2317L33.295 32.115L30.345 29.1683L33.2983 26.2183L33.395 26.1017C33.491 25.9625 33.5425 25.7974 33.5425 25.6283C33.5425 25.4592 33.491 25.2942 33.395 25.155L33.2983 25.04L33.1833 24.9433C33.044 24.8469 32.8786 24.7953 32.7092 24.7953C32.5397 24.7953 32.3743 24.8469 32.235 24.9433L32.12 25.04L29.1683 27.99L26.2183 25.04L26.1017 24.9433C25.9829 24.8614 25.8449 24.8117 25.7011 24.7992C25.5574 24.7866 25.4128 24.8116 25.2817 24.8717L25.155 24.9433ZM16.6667 3.34C18.8768 3.34 20.9964 4.21797 22.5592 5.78077C24.122 7.34358 25 9.46319 25 11.6733C25 13.8835 24.122 16.0031 22.5592 17.5659C20.9964 19.1287 18.8768 20.0067 16.6667 20.0067C14.4565 20.0067 12.3369 19.1287 10.7741 17.5659C9.2113 16.0031 8.33333 13.8835 8.33333 11.6733C8.33333 9.46319 9.2113 7.34358 10.7741 5.78077C12.3369 4.21797 14.4565 3.34 16.6667 3.34Z" fill="#inherit"/>
</svg>
