<svg width="20" height="26" viewBox="0 0 20 26" fill="none" xmlns="http://www.w3.org/2000/svg">
<path d="M12.5 0.5H2.5C1.83696 0.5 1.20107 0.763392 0.732233 1.23223C0.263392 1.70107 0 2.33696 0 3V23C0 23.663 0.263392 24.2989 0.732233 24.7678C1.20107 25.2366 1.83696 25.5 2.5 25.5H17.5C18.163 25.5 18.7989 25.2366 19.2678 24.7678C19.7366 24.2989 20 23.663 20 23V8L12.5 0.5ZM11.25 3L17.5 9.25H11.25V3ZM5.66375 20.5H4.71375V18.7363H3.14375V20.5H2.185V16.2837H3.14375V17.9038H4.715V16.2837H5.665V20.5H5.66375ZM9.41375 17.085H8.2625V20.5H7.305V17.085H6.17375V16.2837H9.41375V17.085ZM13.5225 20.5L13.46 18.8862C13.4387 18.38 13.4225 17.7662 13.4225 17.1525H13.4025C13.2725 17.6912 13.0963 18.2913 12.9338 18.7862L12.4213 20.4312H11.675L11.2262 18.7975C11.0744 18.2551 10.9467 17.7062 10.8438 17.1525H10.83C10.8037 17.7225 10.7875 18.3725 10.7562 18.8975L10.6812 20.5H9.8L10.07 16.2837H11.3387L11.7525 17.6912C11.8825 18.18 12.015 18.705 12.1075 19.1987H12.1287C12.2475 18.71 12.39 18.1537 12.5287 17.685L12.9775 16.2837H14.2225L14.4537 20.5H13.5225ZM17.815 20.5H15.18V16.2837H16.1387V19.6987H17.8162V20.5H17.815Z" fill="inherit"/>
</svg>
