<svg width="270" height="50" viewBox="0 0 270 50" fill="none" xmlns="http://www.w3.org/2000/svg">
<g id="tree" class="tree">
<g id="clarity:tree-solid">
<path id="Vector" d="M25 2.77783C15 2.36116 6.66666 10.1389 6.25 20.1389C5.83333 30.1389 13.6111 38.4723 23.6111 38.8889V31.6667L16.3889 24.4445C15.8333 23.8889 15.8333 23.0556 16.3889 22.5001C16.9444 21.9445 17.7778 21.9445 18.3333 22.5001L23.6111 27.7778V19.1667L19.8611 15.4167C19.3056 14.8612 19.3056 14.0278 19.8611 13.4723C20.4167 12.9167 21.25 12.9167 21.8056 13.4723L26.3889 18.0556V22.2223L30.9722 17.6389C31.5278 17.0834 32.3611 17.0834 32.9167 17.6389C33.4722 18.1945 33.4722 19.0278 32.9167 19.5834L26.3889 26.1112V38.8889C36.3889 38.4723 44.1667 30.1389 43.75 20.1389C43.3333 10.1389 35 2.36116 25 2.77783Z" fill="#FED9B7"/>
<path id="Vector_2" d="M25 38.8889H23.6111V45.8334C23.6111 46.6667 24.1666 47.2222 25 47.2222C25.8333 47.2222 26.3889 46.6667 26.3889 45.8334V38.8889H25Z" fill="#FED9B7"/>
</g>
</g>
<g id="tree_2" class="tree">
<g id="clarity:tree-solid_2">
<path id="Vector_3" d="M135 2.77783C125 2.36116 116.667 10.1389 116.25 20.1389C115.833 30.1389 123.611 38.4723 133.611 38.8889V31.6667L126.389 24.4445C125.833 23.8889 125.833 23.0556 126.389 22.5001C126.944 21.9445 127.778 21.9445 128.333 22.5001L133.611 27.7778V19.1667L129.861 15.4167C129.306 14.8612 129.306 14.0278 129.861 13.4723C130.417 12.9167 131.25 12.9167 131.806 13.4723L136.389 18.0556V22.2223L140.972 17.6389C141.528 17.0834 142.361 17.0834 142.917 17.6389C143.472 18.1945 143.472 19.0278 142.917 19.5834L136.389 26.1112V38.8889C146.389 38.4723 154.167 30.1389 153.75 20.1389C153.333 10.1389 145 2.36116 135 2.77783Z" fill="#FED9B7"/>
<path id="Vector_4" d="M135 38.8889H133.611V45.8334C133.611 46.6667 134.167 47.2222 135 47.2222C135.833 47.2222 136.389 46.6667 136.389 45.8334V38.8889H135Z" fill="#FED9B7"/>
</g>
</g>
<g id="tree_3" class="tree">
<g id="clarity:tree-solid_3">
<path id="Vector_5" d="M245 2.77783C235 2.36116 226.667 10.1389 226.25 20.1389C225.833 30.1389 233.611 38.4723 243.611 38.8889V31.6667L236.389 24.4445C235.833 23.8889 235.833 23.0556 236.389 22.5001C236.945 21.9445 237.778 21.9445 238.333 22.5001L243.611 27.7778V19.1667L239.861 15.4167C239.306 14.8612 239.306 14.0278 239.861 13.4723C240.417 12.9167 241.25 12.9167 241.806 13.4723L246.389 18.0556V22.2223L250.972 17.6389C251.528 17.0834 252.361 17.0834 252.917 17.6389C253.472 18.1945 253.472 19.0278 252.917 19.5834L246.389 26.1112V38.8889C256.389 38.4723 264.167 30.1389 263.75 20.1389C263.333 10.1389 255 2.36116 245 2.77783Z" fill="#FED9B7"/>
<path id="Vector_6" d="M245 38.8889H243.611V45.8334C243.611 46.6667 244.167 47.2222 245 47.2222C245.833 47.2222 246.389 46.6667 246.389 45.8334V38.8889H245Z" fill="#FED9B7"/>
</g>
</g>
</svg>
