<svg width="25" height="26" viewBox="0 0 25 26" fill="none" xmlns="http://www.w3.org/2000/svg">
<path d="M8.74992 2.16669H18.4999C19.6916 2.16669 20.6666 3.14169 20.6666 4.33335V21.6667C20.6666 22.8584 19.6916 23.8334 18.4999 23.8334H8.74992C7.55825 23.8334 6.58325 22.8584 6.58325 21.6667V20.5834C6.58325 20.296 6.69739 20.0205 6.90055 19.8173C7.10372 19.6142 7.37927 19.5 7.66659 19.5C7.9539 19.5 8.22945 19.6142 8.43262 19.8173C8.63578 20.0205 8.74992 20.296 8.74992 20.5834V21.6667H18.4999V4.33335H8.74992V5.41669C8.74992 5.70401 8.63578 5.97955 8.43262 6.18272C8.22945 6.38588 7.9539 6.50002 7.66659 6.50002C7.37927 6.50002 7.10372 6.38588 6.90055 6.18272C6.69739 5.97955 6.58325 5.70401 6.58325 5.41669V4.33335C6.58325 3.14169 7.55825 2.16669 8.74992 2.16669Z" fill="inherit"/>
<path d="M10.6946 17.6529C11.1171 18.0754 11.7996 18.0754 12.2221 17.6529L16.1091 13.7659C16.3122 13.5628 16.4263 13.2873 16.4263 13C16.4263 12.7128 16.3122 12.4373 16.1091 12.2341L12.2221 8.3471C12.0162 8.16097 11.7466 8.06109 11.4691 8.06809C11.1916 8.0751 10.9274 8.18846 10.7311 8.38473C10.5349 8.58101 10.4215 8.8452 10.4145 9.12269C10.4075 9.40018 10.5074 9.66975 10.6935 9.87568L12.7258 11.9167H3.33333C3.04602 11.9167 2.77047 12.0308 2.5673 12.234C2.36414 12.4371 2.25 12.7127 2.25 13C2.25 13.2873 2.36414 13.5629 2.5673 13.766C2.77047 13.9692 3.04602 14.0833 3.33333 14.0833H12.7258L10.6935 16.1243C10.4913 16.3274 10.3778 16.6023 10.378 16.8889C10.3782 17.1754 10.4921 17.4502 10.6946 17.6529Z" fill="inherit"/>
</svg>
