<svg width="20" height="26" viewBox="0 0 20 26" fill="none" xmlns="http://www.w3.org/2000/svg">
<path d="M17.5 25.5H2.5C1.83696 25.5 1.20107 25.2366 0.732233 24.7678C0.263392 24.2989 0 23.663 0 23V3C0 2.33696 0.263392 1.70108 0.732233 1.23223C1.20107 0.763393 1.83696 0.500001 2.5 0.500001H11.25C11.2612 0.498535 11.2725 0.498535 11.2838 0.500001H11.2913C11.3031 0.503691 11.3152 0.506203 11.3275 0.507501C11.4375 0.515001 11.5463 0.536251 11.6512 0.571251H11.7037C11.7268 0.5874 11.7486 0.605374 11.7688 0.625001C11.9049 0.685555 12.029 0.770253 12.135 0.875001L19.635 8.375C19.7398 8.48098 19.8245 8.60507 19.885 8.74125C19.8959 8.76828 19.9055 8.79581 19.9137 8.82375L19.9263 8.85875C19.9613 8.9625 19.9812 9.07125 19.9875 9.18125C19.9886 9.1937 19.9915 9.20592 19.9963 9.2175V9.225C19.9983 9.2332 19.9995 9.24157 20 9.25V23C20 23.663 19.7366 24.2989 19.2678 24.7678C18.7989 25.2366 18.163 25.5 17.5 25.5ZM13.03 15.5V21.75H14.205V19.2H16.03V18.1525H14.205V16.5513H16.25V15.5H13.03ZM8.405 15.5V21.75H9.9125C10.545 21.7812 11.1575 21.5238 11.5775 21.05C12.0086 20.4999 12.2246 19.8116 12.185 19.1138V18.1013C12.2141 17.4108 11.992 16.7331 11.56 16.1938C11.1538 15.7313 10.56 15.4763 9.94375 15.5H8.405ZM3.75 15.5V21.75H4.925V19.5513H5.7075C6.23 19.58 6.74 19.3863 7.1125 19.0188C7.4675 18.6213 7.65125 18.1013 7.625 17.5688C7.6482 17.024 7.46418 16.4908 7.11 16.0763C6.93697 15.8844 6.72361 15.7332 6.48522 15.6336C6.24684 15.5339 5.98935 15.4883 5.73125 15.5H3.75ZM11.25 3V9.25H17.5L11.25 3ZM9.9325 20.7025H9.58V16.5513H10.0075C10.1569 16.5424 10.3061 16.5712 10.4415 16.635C10.5769 16.6988 10.6941 16.7955 10.7825 16.9163C10.9663 17.295 11.045 17.7163 11.01 18.1363V19.2225C11.0375 19.6225 10.9513 20.0225 10.76 20.3738C10.6591 20.4916 10.531 20.583 10.3868 20.6403C10.2427 20.6976 10.0868 20.7189 9.9325 20.7025ZM5.73125 18.5H4.92375V16.5513H5.7425C5.84305 16.5523 5.94168 16.5789 6.02913 16.6286C6.11659 16.6782 6.19001 16.7492 6.2425 16.835C6.3775 17.0588 6.4425 17.3163 6.43 17.5775C6.44567 17.8206 6.38112 18.0621 6.24625 18.265C6.18496 18.3419 6.10637 18.4033 6.01688 18.4441C5.92739 18.485 5.82953 18.5041 5.73125 18.5Z" fill="inherit"/>
</svg>
