<svg width="21" height="7" viewBox="0 0 21 7" fill="none" xmlns="http://www.w3.org/2000/svg">
<path d="M3.5 4.375C3.98325 4.375 4.375 3.98325 4.375 3.5C4.375 3.01675 3.98325 2.625 3.5 2.625C3.01675 2.625 2.625 3.01675 2.625 3.5C2.625 3.98325 3.01675 4.375 3.5 4.375Z" stroke="#1D2D44" stroke-width="2"/>
<path d="M10.5 4.375C10.9832 4.375 11.375 3.98325 11.375 3.5C11.375 3.01675 10.9832 2.625 10.5 2.625C10.0168 2.625 9.625 3.01675 9.625 3.5C9.625 3.98325 10.0168 4.375 10.5 4.375Z" stroke="#1D2D44" stroke-width="2"/>
<path d="M17.5 4.375C17.9832 4.375 18.375 3.98325 18.375 3.5C18.375 3.01675 17.9832 2.625 17.5 2.625C17.0168 2.625 16.625 3.01675 16.625 3.5C16.625 3.98325 17.0168 4.375 17.5 4.375Z" stroke="#1D2D44" stroke-width="2"/>
</svg>
